<?xml version="1.0" encoding="UTF-8"?>
<svg id="Ebene_1" data-name="Ebene 1" xmlns="http://www.w3.org/2000/svg" version="1.1" viewBox="0 0 425 284.3">
  <defs>
    <style>
      .cls-1 {
        fill: #fff;
        stroke-width: 0px;
      }
    </style>
  </defs>
  <g>
    <path class="cls-1" d="M154.1,61.4c0,11.2-9.1,20.3-20.3,20.3s-20.3-9.1-20.3-20.3,9.1-20.3,20.3-20.3,20.3,9.1,20.3,20.3"/>
    <path class="cls-1" d="M271.7,119.8c-.4-9-.8-18.1-1-27.2-.1-2.8-.5-14.9-.5-17.5l-.6-.8c-14.7.4-18,.5-30.7.5l-.9.8c-7,14.8-7.9,16.3-14.9,30.9l-14.3,28.4c-3.7,7.5-9.9,19.6-14.2,28.1l-.8,1.3.6.8c8.4-.1,13.1-.3,23.2-.3l.9-.8c1.9-4.3,3.8-9.1,5.6-13l3.4-8.4c8,0,10.7-.1,20.3.1v8.8c-.3,5.1-.4,8.2-.5,12v1l.6.6c10.2-.4,13.5-.4,24.9-.4l.8-.8c-.4-4.5-.6-11.1-.8-16.7l-1.1-27.5ZM248,114.1v10.6c-5.2.1-6.6.1-12.9,0l13-31.1c-.1,6.6-.1,13.9-.1,20.5"/>
    <path class="cls-1" d="M185.7,112.5c-.8-.8-3.8-3.9-4.4-4.6-2.4-2.8-3.9-5.3-3.9-8.1s2.4-8.1,8.6-8.1,9.5,3.8,12.7,7l1.4-.4c2.2-7.7,2.8-9.8,5.7-18l-.8-1.6c-6.6-3.4-14.2-4.6-21.7-4.6s-16.2.5-24.3,8.1c-5.8,5.6-9.4,14.7-9.4,21.9s4.7,14.6,9.9,20.3c1,1.1,1.9,2.2,2.9,3.3l2.7,3c2,2.3,4.7,5.3,4.7,9.5s-2.3,9.4-9.6,9.4-11.3-2.9-15.1-8.1l-1.1.4c-1.8,7.3-2.2,9.1-4.7,18.5l.4,1.3c7.1,3.8,16.8,4.9,23.3,4.9,25.7,0,34.9-16.7,34.9-30.3s-4.7-15.6-12.2-23.8"/>
    <path class="cls-1" d="M101.5,93.5c1.6-6.8,2.4-9.4,4.6-17.5l-.6-.8c-5.3.1-13.6.3-18.9.4h-40.3l-.9.8c-1.8,7-2.7,10.1-4.7,17.2l.6.8c1.5,0,8.6-.1,10.1-.1h8c-1.6,7.5-4.6,19.5-6.2,27l-6.5,26.6c-1.1,4.7-3.2,12.2-4.2,16.8l.6.8c10.8-.4,14.1-.4,25.1-.4l.8-.8c.9-4.8,1.3-6.8,5.2-24.9l5.6-24.7c1.3-5.3,3.2-13.8,4.6-19.1.1-.5.3-.9.4-1.4h6.7c2.9,0,3.5,0,9.4.1l.8-.8Z"/>
    <path class="cls-1" d="M116.7,79.5c-3,14.4-6.8,31.7-8.7,40.2l-6.6,27.9c-.6,2.7-3.4,14.7-4,17.1l.6.8c12.2-.4,14.7-.4,25.8-.5l.8-.8c1-6.3,1.3-7.2,3.4-17.3l4.4-20.5c2-9,5.7-26.5,8.9-41-2.6,1.2-5.5,1.9-8.6,1.9-6.5,0-12.2-3-16-7.7"/>
    <path class="cls-1" d="M347.9,165c-8.9,0-17.8.3-26.6.5l-.8-.8c-.8-3.7-1.5-7.4-2.5-10.9l-3.6-14.2-7.4,12.8c-2.2,3.9-4.6,7.9-6.7,11.9l-1.3.6c-7.6,0-15.2.3-22.7.5l-.6-.8c1.9-2.5,3.7-5.3,5.6-8,1.8-2.7,3.7-5.2,5.6-7.7l19.9-29.4-7.6-23.3c-2.3-6.6-4.4-13.1-6.7-19.7l.8-.6c8.8-.2,17.5-.6,26.4-1.1l.6.8c1,3.9,1.8,7.7,2.5,11.7.9,4.3,2,8.6,3.2,12.7,2.2-3.9,4.6-7.9,6.8-11.8,2.2-3.8,4.2-7.6,6.5-11.5l1.1-.6c7.2-.1,14.6-.4,21.8-.6l.6.9c-3.4,4.8-7,9.5-10.5,14.5l-19.7,27.9,9.1,26.6c1.1,3.2,2.3,6.3,3.3,9.5,1,3.2,2,6.5,3.4,9.6l-.6.6Z"/>
    <path class="cls-1" d="M373.6,83.7v-3.1h1.3c.2,0,.4,0,.6,0,.8,0,1.2,0,1.5.2.6.4.7,1.1.7,1.3,0,.3-.1.6-.2.7-.3.6-.9.8-1.6.9-.2,0-.5,0-.7,0h-1.7ZM380,90.4c-.3-.6-.5-1.3-.8-2.7-.1-.9-.2-2.1-1.1-2.7-.1-.1-.3-.2-.7-.4.4,0,.6-.2.8-.3,1.4-.7,1.6-1.9,1.6-2.5,0-.9-.4-1.5-.6-1.8-.9-1.2-2.5-1.2-3.9-1.2h-3.7v11.5h2v-5.2h.7c1,0,1.3,0,1.7.3.5.3.7.7.9,1.8.2,1.1.2,2,.7,3h2.4ZM384.5,84.8c0-2-.6-3.9-1.8-5.5-1.8-2.4-4.4-3.7-7.3-3.7s-6.1,2.2-7.1,3.2c-.7.9-2.1,2.8-2.1,5.8s2.4,6.3,3.5,7.3c1.6,1.2,3.5,1.9,5.6,1.9s4.5-.3,6.9-3.2c1.9-2.3,2.2-4.8,2.2-5.9M383.7,84.8c0,3.5-2.1,6.6-5.5,7.8-1.3.4-2.3.5-2.8.5-3.4,0-6.4-2-7.7-5.1-.4-1-.6-2-.6-3.1,0-3.8,2.3-5.9,3.4-6.7,2-1.5,4-1.6,4.9-1.6,3.7,0,5.8,2.2,6.6,3.3,1.5,2,1.6,4.1,1.6,5"/>
  </g>
  <g>
    <path class="cls-1" d="M301.5,209.9c0-2.3-1.6-2.3-2.2-2.3s-.5,0-.9,0c0,2.2,0,2.8,0,4.9,1.3,0,3.1,0,3.1-2.6"/>
    <path class="cls-1" d="M226.7,207.9c-.3,1.6-.4,2.1-1,4.8l-.8,3.3c1.1,0,2.2,0,3.3,0l-.7-3.5c-.4-2.3-.5-2.9-.8-4.6"/>
    <path class="cls-1" d="M278.8,207.9c-.3,1.6-.4,2.1-1,4.8l-.8,3.3c1.1,0,2.2,0,3.3,0l-.7-3.5c-.4-2.3-.5-2.9-.8-4.6"/>
    <path class="cls-1" d="M64.6,208.1c-.3,0-.7,0-.9,0,0,1.5,0,3.8,0,5.3.7,0,1.1,0,1.2,0,1.4-.5,1.6-1.9,1.6-2.8s0-1-.3-1.6c-.2-.5-.6-.9-1.5-.9"/>
    <path class="cls-1" d="M186.5,207.9c-.3,1.6-.4,2.1-1,4.8l-.8,3.3c1.1,0,2.2,0,3.3,0l-.7-3.5c-.4-2.3-.5-2.9-.8-4.6"/>
    <path class="cls-1" d="M298.4,216.7v5.1c1.3,0,3.3.1,3.3-2.8s-1.8-2.4-3.3-2.3"/>
    <path class="cls-1" d="M40.7,244.1h322.2v-61.1H40.7v61.1ZM73.6,225.5c-2.9,0-3.6.1-6.4.3l-.2-.2c-.1-.3-.2-.7-.3-1.1-.5-1.6-1-3.2-1.5-4.8l-.7-2.3c-.3,0-.6,0-.9,0,0,3.8,0,5.1.2,7.9l-.2.2c-2.8,0-3.1,0-6,0l-.2-.2c0-1.5.2-9,.2-10.7s0-7.7-.2-10.9v-.2c1.2,0,6.4,0,7.7,0,1.8,0,3.6,0,4.9.8,2.5,1.3,2.7,4.4,2.7,5.8,0,3.8-1.9,5.1-2.8,5.8l1.2,3.1c.6,1.4,1.5,3.7,2.7,6.1v.2ZM90.8,225.5l-.2.2h-6.9c-3.2,0-3.7,0-5.6,0l-.2-.2c0-2.3.1-4.9.1-9.9s0-8.1-.2-11.8l.2-.2c1.4,0,1.7,0,5.2,0,5.1,0,5.7,0,7.2,0l.2.2c-.2,2-.2,2.6-.2,4.2l-.2.2c-.5,0-3,0-3.5,0s-.5,0-2.4,0c0,1.9,0,2.3,0,4.1,1.8,0,4.3,0,5.7-.1l.2.2c-.1,1.7-.1,2.4-.2,4.1l-.2.2c-1.3,0-3.9,0-5.5,0v4.5c1.5,0,4.8,0,6.6-.2l.2.2c-.2,2-.2,2.6-.2,4.5M107.1,223.8c-1.7,1.9-4.1,2.3-6.3,2.3s-3.4-.3-4.7-1l-.2-.3c0-.8.1-1.6.2-2.4,0-.7,0-1.4,0-2h.2c.4.3,1.7,1.3,3.8,1.3s2.5-1.7,2.5-2.1c0-1.1-.9-1.7-2.1-2.6l-1.3-.9c-1.5-1.1-3.5-2.5-3.5-6.1s.8-3.8,1.8-4.9c1.3-1.2,3.1-1.8,5.5-1.8s4.3.7,4.9,1v.2c0,.8,0,1.6,0,2.3v2.1c0,0-.3,0-.3,0-.8-.7-1.8-1.4-3.5-1.4s-2.2.7-2.2,1.8.8,1.8,2.3,2.8c2.9,2,4.7,3.2,4.7,6.7s-.7,3.8-1.7,4.9M130.2,214.7v1.5c0,3.9,0,5.4-1.3,7.1-1.9,2.8-5.4,2.8-6.8,2.8s-6.3,0-7.7-4.5c-.4-1.3-.4-2.7-.4-5.5v-1.3c0-2.1,0-2.4,0-5.5s0-3.5,0-5.3l.2-.2c2.7,0,3.3,0,6.2,0l.2.2c0,4.1,0,8.1,0,12.2s0,4,.7,4.8c.5.6,1.1.7,1.6.7,2.1,0,2.2-2.3,2.2-4.6,0-3.3,0-6.8,0-10s0-1.6,0-3l.2-.2c2.5,0,3.1,0,5.1,0l.2.2c0,2.4,0,4-.1,10.8M148.7,225.5l-.2.2h-8.7c-1.1,0-1.8,0-3.1,0l-.2-.2c0-2.6,0-3.7,0-6.3s0-7.7,0-9.1v-2.6c0-1.7,0-2.3,0-3.5l.2-.2c3,0,3.8,0,6.1,0l.2.2c0,.4,0,.8,0,1.2,0,1.6,0,9.7,0,11.5,0,.8,0,1.5,0,2.3s0,1.1,0,2.1c2,0,3.9,0,5.9-.2l.2.2c-.2,1.9-.2,2.4-.2,4.5M163.9,208.2l-.2.2c-2.1,0-2.6,0-4.1,0,0,1.2,0,2.7,0,5,0,3.9,0,8.5.2,12.3l-.2.2c-2.8,0-3.4,0-6.1,0l-.2-.2c.1-3.2.2-16.6.2-17.3-.8,0-1.5,0-2.4,0-.7,0-1.3,0-1.9,0l-.2-.2c0-1.7.1-2.3.2-4.2l.2-.2h7.7c1.1,0,2.3,0,3.5,0,1.1,0,2.6,0,3.5,0l.2.2c-.2,1.9-.2,2.3-.2,4.2M196.2,225.6c-2.6,0-3.2,0-6.1.1l-.2-.2c-.3-2.1-.6-3.3-1-5.3h-5c-.4,1.7-.8,3.5-1.1,5.2l-.2.2c-2.4,0-3.3,0-5.5,0l-.2-.2c.6-2,.7-2.5,1.7-6l1.4-5.2c.5-1.6.9-3.1,1.3-4.7.2-.8,1.3-4.8,1.6-5.7l.2-.2c3.8,0,4.4,0,7.5,0l.2.2c0,.4.2.8.3,1.2,1.4,5.3,1.5,5.7,2.3,9l1.4,5.5c.3,1.2.8,3.2,1.1,4.4,0,.2.3,1.3.4,1.5l-.2.2ZM214.3,209.9l-1.2,4.4-.9,3.7c-.3,1.2-.7,2.4-1,3.6-.1.6-.8,3.3-1,3.9l-.2.2c-2.9,0-3.6,0-6.4,0l-.2-.2c0-.3-.1-.6-.2-.9-.3-1.4-.9-3.7-1.3-5.1l-1.7-6.3c-.3-1.1-.6-2.3-.9-3.5-.4-1.5-.7-3-1.2-4.6-.1-.4-.2-.8-.4-1.3l.2-.2c3,0,3.7,0,6.2-.2l.2.2c.6,3.1,1.1,5.5,2,10.2l1,5.1,1.1-5.3c1.3-6,1.5-7.1,1.9-9.8l.2-.2c2.2,0,2.8,0,5.2,0v.2c-.5,2.3-.6,2.5-1.5,6M236.4,225.6c-2.6,0-3.2,0-6.1.1l-.2-.2c-.3-2.1-.6-3.3-1-5.3h-5c-.4,1.7-.8,3.5-1.1,5.2l-.2.2c-2.4,0-3.3,0-5.5,0l-.2-.2c.6-2,.7-2.5,1.7-6l1.4-5.2c.5-1.6.9-3.1,1.3-4.7.2-.8,1.3-4.8,1.6-5.7l.2-.2c3.8,0,4.4,0,7.5,0l.2.2c0,.4.2.8.3,1.2,1.4,5.3,1.5,5.7,2.3,9l1.4,5.5c.3,1.2.8,3.2,1.1,4.4,0,.2.3,1.3.4,1.5l-.2.2ZM246.8,225.7c-3,0-3.7,0-6.3,0l-.2-.2c0-4.5,0-8.9,0-13.4s0-6-.2-8.2l.2-.2c2.8,0,3.4,0,6.3,0l.2.2c0,1.7-.2,4.3-.2,8.9s0,8.5.2,12.7l-.2.2ZM265.3,225.5l-.2.2h-8.6c-1.1,0-1.8,0-3.1,0l-.2-.2c0-2.6,0-3.7,0-6.3s0-7.7,0-9.1v-2.6c0-1.7,0-2.3,0-3.5l.2-.2c3,0,3.8,0,6.1,0l.2.2c0,.4,0,.8,0,1.2,0,1.6,0,9.7,0,11.5,0,.8,0,1.5,0,2.3s0,1.1,0,2.1c2,0,3.9,0,5.9-.2l.2.2c-.2,1.9-.2,2.4-.2,4.5M288.4,225.6c-2.6,0-3.2,0-6.1.1l-.2-.2c-.3-2.1-.6-3.3-1-5.3h-5c-.4,1.7-.8,3.5-1.1,5.2l-.2.2c-2.4,0-3.3,0-5.5,0l-.2-.2c.6-2,.7-2.5,1.7-6l1.4-5.2c.5-1.6.9-3.1,1.3-4.7.2-.8,1.3-4.8,1.5-5.7l.2-.2c3.8,0,4.4,0,7.5,0l.2.2c0,.4.2.8.3,1.2,1.4,5.3,1.5,5.7,2.3,9l1.4,5.5c.3,1.2.8,3.2,1.1,4.4,0,.2.3,1.3.4,1.5l-.2.2ZM305.7,224.4c-1.8,1.3-4.2,1.3-5.7,1.3h-3.7c-.6,0-3.3,0-3.9,0l-.2-.2c0-3.8.2-7.5.2-11.3s0-6.9-.2-10.3v-.2c2.5,0,3.9,0,5.3,0,1.8,0,2,0,2.5,0,3.1,0,7.5,0,7.5,5.2s-1.3,3.9-2.9,4.7c-.2,0-.5.2-.7.3.2,0,.5,0,.7.1.6.1,1.1.4,1.7.7,1.8,1.2,2,3.2,2,4.4,0,2.7-1.3,4.5-2.5,5.3M325.7,225.5l-.2.2h-8.7c-1.1,0-1.8,0-3.1,0l-.2-.2c0-2.6,0-3.7,0-6.3s0-7.7,0-9.1v-2.6c0-1.7,0-2.3,0-3.5l.2-.2c3,0,3.8,0,6.1,0l.2.2c0,.4,0,.8,0,1.2,0,1.6,0,9.7,0,11.5,0,.8,0,1.5,0,2.3s0,1.1,0,2.1c2,0,3.9,0,5.9-.2l.2.2c-.2,1.9-.2,2.4-.2,4.5M343,225.5l-.2.2h-6.9c-3.2,0-3.7,0-5.6,0l-.2-.2c0-2.3.1-4.9.1-9.9s0-8.1-.2-11.8l.2-.2c1.4,0,1.7,0,5.2,0,5.1,0,5.7,0,7.2,0l.2.2c-.2,2-.2,2.6-.2,4.2l-.2.2c-.5,0-3,0-3.5,0s-.5,0-2.4,0c0,1.9,0,2.3,0,4.1,1.8,0,4.3,0,5.7-.1l.2.2c-.1,1.7-.1,2.4-.2,4.1l-.2.2c-1.3,0-3.9,0-5.5,0v4.5c1.5,0,4.8,0,6.6-.2l.2.2c-.2,2-.2,2.6-.2,4.5"/>
  </g>
</svg>