<svg id="Group_10" data-name="Group 10" xmlns="http://www.w3.org/2000/svg" xmlns:xlink="http://www.w3.org/1999/xlink" width="758.898" height="758.898" viewBox="0 0 758.898 758.898">
  <defs>
    <clipPath id="clip-path">
      <rect id="Rectangle_4" data-name="Rectangle 4" width="758.898" height="758.898" fill="none"/>
    </clipPath>
  </defs>
  <path id="Path_3" data-name="Path 3" d="M299.273,377.215h22.248l-11.138-33.862Z" fill="#fff"/>
  <g id="Group_9" data-name="Group 9">
    <g id="Group_8" data-name="Group 8" clip-path="url(#clip-path)">
      <path id="Path_4" data-name="Path 4" d="M320.562,644.251V602.407H758.9V79.053A79.052,79.052,0,0,0,679.846,0H79.052A79.052,79.052,0,0,0,0,79.053v35.593H438.336v41.843H0V679.847A79.051,79.051,0,0,0,79.052,758.9H679.846A79.051,79.051,0,0,0,758.9,679.847v-35.6Zm242.51-322.157H581.1V409.9H563.072Zm-141.846,0h32.748a44.888,44.888,0,0,1,17.31,3.015,24.049,24.049,0,0,1,11.217,8.925q3.921,5.91,3.919,14.535a27.978,27.978,0,0,1-2.412,12.122,22.7,22.7,0,0,1-6.694,8.382,32.851,32.851,0,0,1-6.652,3.935l19.015,36.05v.844H470.318L453.688,377.4H439.32V409.9H421.226ZM204.841,409.9H148.392V322.094h18.093v73.7h38.356Zm83.708,0H269.311l32.626-87.808h16.826L351.571,409.9h-19.3l-6.09-18.514h-31.56Z" fill="#fff"/>
      <path id="Path_5" data-name="Path 5" d="M461.995,361.6a11.068,11.068,0,0,0,4.705-4.705,14.5,14.5,0,0,0,1.629-7,15.886,15.886,0,0,0-1.569-7.3,10.572,10.572,0,0,0-4.765-4.7,17.565,17.565,0,0,0-8.021-1.629H439.32v27.019H454.1a16.535,16.535,0,0,0,7.9-1.689" fill="#fff"/>
    </g>
  </g>
</svg>
