<svg xmlns="http://www.w3.org/2000/svg" width="483.934" height="308.695" viewBox="0 0 483.934 308.695">
  <g id="logo" transform="translate(-125.981 -160.875)">
    <g id="SvgjsG1064" transform="translate(125.981 390.855)">
      <path id="Path_1" data-name="Path 1" d="M165.075,286.436,202.3,335.8H190.432l-10.52-13.757H150.239L139.988,335.8H128.119ZM157.522,312.6H172.9l-7.823-10.251Zm118.96-22.929.27,23.2a19.41,19.41,0,0,1-5.935,14.027c-4.046,4.046-11.869,9.172-26.436,9.172h-.539c-11.06,0-20.231-3.237-25.9-8.9a19.569,19.569,0,0,1-5.935-14.3l-.27-22.929h9.441l.27,23.2h0a11.133,11.133,0,0,0,3.237,7.553c4.046,4.046,10.79,6.2,19.422,6.2,8.9,0,15.646-2.428,19.692-6.2a8.856,8.856,0,0,0,2.967-7.283h0l-.27-23.2Zm69.056.54h9.441V335.8l-55.029-28.863v29.4H290.51V290.752l55.029,28.863v-29.4Zm87.4,9.441H377.909v8.9l36.686.27v9.441L377.909,318v8.9h55.029v9.441H368.468V290.212h64.471v9.441Zm13.488-9.981H510.9v9.441H483.382V336.07h-9.441V299.114H446.426v-9.441ZM534.1,336.34h-9.441V290.482H534.1Zm45.588,0c-9.711,0-17.534-2.158-23.2-6.2a20,20,0,0,1-8.632-16.725,20.708,20.708,0,0,1,8.632-16.725c5.665-4.046,13.488-6.2,23.2-6.2h32.1v9.441H579.953c-14.027,0-22.659,5.125-22.659,13.488a10.153,10.153,0,0,0,4.856,8.9c4.046,2.967,10.251,4.316,17.8,4.586h31.831l.27,9.441Z" transform="translate(-128.119 -286.436)" fill="#fff"/>
    </g>
    <g id="SvgjsG1065" transform="translate(210.826 459.619)">
      <path id="Path_2" data-name="Path 2" d="M192.91,300.784a4.264,4.264,0,0,1-4.249,5.143,4.92,4.92,0,1,1,3.187-8.721l-1.062,1.23a3.615,3.615,0,0,0-2.013-.671,3.13,3.13,0,0,0-3.187,3.243,3.074,3.074,0,0,0,3.075,3.243,2.367,2.367,0,0,0,2.628-1.957H188.94v-1.509Zm16.38-4.528h1.789v6.094a3.538,3.538,0,0,1-3.634,3.69,3.476,3.476,0,0,1-3.634-3.69v-6.094H205.6v6.094a1.852,1.852,0,1,0,3.69,0Zm14.647,0v9.56h-1.789v-9.56Zm14.368,0a4.78,4.78,0,1,1,0,9.56h-3.3v-9.56Zm0,7.883a3.075,3.075,0,0,0,0-6.15h-1.454v6.15Zm17.387-7.883v9.56H253.9v-9.56Zm17.443,0h1.789v9.56h-1.342l-4.976-6.261v6.261h-1.789v-9.56h1.4l4.976,6.317v-6.317Zm21.859,4.528a4.264,4.264,0,0,1-4.249,5.143,4.92,4.92,0,1,1,3.187-8.721l-1.062,1.23a3.615,3.615,0,0,0-2.013-.671,3.13,3.13,0,0,0-3.187,3.243,3.074,3.074,0,0,0,3.075,3.243,2.367,2.367,0,0,0,2.628-1.957h-2.348v-1.509Zm33.376,0a4.264,4.264,0,0,1-4.249,5.143,4.92,4.92,0,1,1,3.187-8.721l-1.062,1.23a3.615,3.615,0,0,0-2.013-.671,3.13,3.13,0,0,0-3.187,3.243,3.074,3.074,0,0,0,3.075,3.243,2.367,2.367,0,0,0,2.628-1.957H324.4v-1.509Zm15.654-4.64a4.92,4.92,0,1,1-4.92,4.92A4.855,4.855,0,0,1,344.023,296.144Zm0,8.106a3.247,3.247,0,1,0-3.075-3.242A3.107,3.107,0,0,0,344.023,304.251Zm23.424-7.995h1.9l-4.249,9.56h-1.621l-4.249-9.56h1.9l3.132,7.324Zm14.256,7.883h4.137v1.677h-5.926v-9.56h5.814v1.677H381.7v2.292h3.075v1.621H381.7Zm22.362,1.677h-1.9l-2.124-3.243h-1.565v3.243h-1.789v-9.56h3.3a3.133,3.133,0,0,1,3.466,3.187,2.894,2.894,0,0,1-1.789,2.8Zm-5.591-7.883v3.132h1.4c1.062,0,1.789-.447,1.789-1.565,0-1.062-.727-1.565-1.789-1.565Zm22.642-1.677h1.789v9.56h-1.342l-4.976-6.261v6.261H414.8v-9.56h1.4l4.976,6.317v-6.317Zm20.461,9.56-.783-1.845h-4.7l-.783,1.845h-1.9l4.249-9.56h1.621l4.249,9.56Zm-4.864-3.3h3.466l-1.733-4.025Zm23.648-6.261h1.789v9.56H460.81l-4.976-6.261v6.261h-1.789v-9.56h1.4l4.976,6.317v-6.317Zm20.853,8.5a4.949,4.949,0,1,1-3.243-8.665,4.812,4.812,0,0,1,3.187,1.118l-1.062,1.23a3.615,3.615,0,0,0-2.013-.671,3.13,3.13,0,0,0-3.187,3.243,3.163,3.163,0,0,0,3.187,3.242,3.445,3.445,0,0,0,2.069-.727Zm12.523-.615h4.137v1.677h-5.926v-9.56h5.814v1.677h-4.025v2.292h3.075v1.621h-3.075Z" transform="translate(-183.741 -296.088)" fill="#fff"/>
    </g>
    <g id="Group_7" data-name="Group 7" transform="translate(243.41 160.875)">
      <path id="Path_3" data-name="Path 3" d="M345.4,270.507A33.307,33.307,0,1,0,378.707,237.2,33.358,33.358,0,0,0,345.4,270.507Z" transform="translate(-260.944 -166.974)" fill="#fff"/>
      <g id="Group_6" data-name="Group 6">
        <g id="Group_1" data-name="Group 1" transform="translate(138.834)">
          <path id="Path_4" data-name="Path 4" d="M432.047,199.542a21.448,21.448,0,1,0-4.508-29.995A21.548,21.548,0,0,0,432.047,199.542Z" transform="translate(-406.008 -160.875)" fill="#fff"/>
          <path id="Path_5" data-name="Path 5" d="M439.187,180.9l7.729,5.7-12.421,16.838-22.174,29.995a52.613,52.613,0,0,0-7.821-5.613l22.358-30.271Z" transform="translate(-404.5 -162.475)" fill="#fff"/>
        </g>
        <g id="Group_2" data-name="Group 2" transform="translate(46.523 11.867)">
          <path id="Path_6" data-name="Path 6" d="M337.321,211.8a20.975,20.975,0,1,0-29.259-4.876A21.03,21.03,0,0,0,337.321,211.8Z" transform="translate(-304.172 -173.772)" fill="#fff"/>
          <path id="Path_7" data-name="Path 7" d="M321.121,180.3l20.518,28.707,13.525,18.862a39.172,39.172,0,0,0-7.821,5.613l-13.525-18.862L313.3,185.913Z" transform="translate(-304.902 -174.294)" fill="#fff"/>
        </g>
        <g id="Group_3" data-name="Group 3" transform="translate(0 111.262)">
          <path id="Path_8" data-name="Path 8" d="M295.465,297.2a21.417,21.417,0,1,0-13.985,26.867A21.549,21.549,0,0,0,295.465,297.2Z" transform="translate(-253.609 -281.836)" fill="#fff"/>
          <path id="Path_9" data-name="Path 9" d="M330.421,281.8a44.31,44.31,0,0,0,2.76,9.2l-34.963,11.041L278.344,308.3l-2.944-9.2,19.966-6.349Z" transform="translate(-255.35 -281.8)" fill="#fff"/>
        </g>
        <g id="Group_4" data-name="Group 4" transform="translate(95.405 146.777)">
          <path id="Path_10" data-name="Path 10" d="M378.922,347.7a21.439,21.439,0,1,0,21.254,21.622A21.52,21.52,0,0,0,378.922,347.7Z" transform="translate(-357.299 -322.581)" fill="#fff"/>
          <path id="Path_11" data-name="Path 11" d="M381.213,320.676c1.564,0,3.036-.092,4.508-.184l-.184,25.763-.276,31.007-9.661-.092.276-31.191.184-25.579C377.716,320.492,379.464,320.676,381.213,320.676Z" transform="translate(-358.762 -320.4)" fill="#fff"/>
        </g>
        <g id="Group_5" data-name="Group 5" transform="translate(157.695 103.013)">
          <path id="Path_12" data-name="Path 12" d="M452.858,294.425a31.511,31.511,0,1,0,39.84-19.966A31.441,31.441,0,0,0,452.858,294.425Z" transform="translate(-427.096 -272.834)" fill="#fff"/>
          <path id="Path_13" data-name="Path 13" d="M427.852,282.2l24.934,8.281,29.535,9.845-3.036,9.109-29.627-9.845L425,291.4A44.513,44.513,0,0,0,427.852,282.2Z" transform="translate(-425 -273.583)" fill="#fff"/>
        </g>
      </g>
    </g>
  </g>
</svg>
